<svg id="Layer_1" data-name="Layer 1" xmlns="http://www.w3.org/2000/svg" xmlns:xlink="http://www.w3.org/1999/xlink" viewBox="0 0 969 1060"><defs><style>.cls-1,.cls-2,.cls-8{fill:#fff;}.cls-1{clip-rule:evenodd;}.cls-14,.cls-3{fill:none;}.cls-3{stroke:#bdc4cb;stroke-miterlimit:10;}.cls-4{fill:#53b6e6;}.cls-5{fill:#0073b9;}.cls-6{fill:#aae1fa;}.cls-7{fill:#2991d2;}.cls-8{fill-rule:evenodd;}.cls-9{clip-path:url(#clip-path);}.cls-10{clip-path:url(#clip-path-2);}.cls-11{clip-path:url(#clip-path-3);}.cls-12{fill:#78d2f5;}.cls-13{fill:#193c6e;}.cls-15{clip-path:url(#clip-path-5);}.cls-16{clip-path:url(#clip-path-6);}</style><clipPath id="clip-path"><path class="cls-1" d="M253.58,836.15a4.53,4.53,0,0,0,6.47,0l6-5.91v16.14a4.52,4.52,0,0,0,4.56,4.51H289.9a4.51,4.51,0,0,0,4.55-4.51V830.24l6,5.91a4.55,4.55,0,0,0,6.48,0l4-3.9a4.46,4.46,0,0,0,0-6.42l-14.17-14a8.54,8.54,0,0,0-6.07-2.5H269.87a8.54,8.54,0,0,0-6.07,2.5l-14.17,14a4.2,4.2,0,0,0-1.31,3.21,4.82,4.82,0,0,0,1.31,3.21Z"/></clipPath><clipPath id="clip-path-2"><rect class="cls-2" x="-1489.17" y="-5989.04" width="3202.16" height="17720.83"/></clipPath><clipPath id="clip-path-3"><path class="cls-1" d="M280.26,804.83a14.12,14.12,0,1,0-14.11-14.12,14.16,14.16,0,0,0,14.11,14.12"/></clipPath><clipPath id="clip-path-5"><path class="cls-1" d="M253.58,2288.15a4.53,4.53,0,0,0,6.47,0l6-5.91v16.14a4.52,4.52,0,0,0,4.56,4.51H289.9a4.51,4.51,0,0,0,4.55-4.51v-16.14l6,5.91a4.55,4.55,0,0,0,6.48,0l4-3.9a4.46,4.46,0,0,0,0-6.42l-14.17-14a8.54,8.54,0,0,0-6.07-2.5H269.87a8.54,8.54,0,0,0-6.07,2.5l-14.17,14a4.2,4.2,0,0,0-1.31,3.21,4.82,4.82,0,0,0,1.31,3.21Z"/></clipPath><clipPath id="clip-path-6"><path class="cls-1" d="M280.26,2256.83a14.12,14.12,0,1,0-14.11-14.12,14.16,14.16,0,0,0,14.11,14.12"/></clipPath></defs><title>cloud_diagram_complete</title><line class="cls-3" x1="300.39" y1="824.69" x2="749.5" y2="601.5"/><line class="cls-3" x1="207.5" y1="1029.5" x2="749.5" y2="601.5"/><line class="cls-3" x1="468.5" y1="965.5" x2="749.5" y2="601.5"/><line class="cls-3" x1="290.5" y1="834" x2="468.5" y2="976.5"/><line class="cls-3" x1="283.5" y1="835" x2="203.5" y2="1018.58"/><line class="cls-3" x1="134.5" y1="677.5" x2="282.5" y2="812.5"/><line class="cls-3" x1="31.25" y1="834.28" x2="283.5" y2="835.5"/><line class="cls-3" x1="36.5" y1="828.5" x2="749.5" y2="601.5"/><line class="cls-3" x1="159.79" y1="667.09" x2="749.5" y2="601.5"/><circle class="cls-4" cx="470" cy="972" r="42"/><circle class="cls-5" cx="206" cy="1014" r="42"/><circle class="cls-6" cx="45" cy="830" r="42"/><circle class="cls-7" cx="134" cy="677" r="42"/><circle class="cls-7" cx="280.26" cy="813.74" r="90"/><path class="cls-8" d="M253.58,836.15a4.53,4.53,0,0,0,6.47,0l6-5.91v16.14a4.52,4.52,0,0,0,4.56,4.51H289.9a4.51,4.51,0,0,0,4.55-4.51V830.24l6,5.91a4.55,4.55,0,0,0,6.48,0l4-3.9a4.46,4.46,0,0,0,0-6.42l-14.17-14a8.54,8.54,0,0,0-6.07-2.5H269.87a8.54,8.54,0,0,0-6.07,2.5l-14.17,14a4.2,4.2,0,0,0-1.31,3.21,4.82,4.82,0,0,0,1.31,3.21Z"/><g class="cls-9"><rect class="cls-2" x="-1489.17" y="-5989.04" width="3202.16" height="17720.83"/><g class="cls-10"><rect class="cls-2" x="237.2" y="798.17" width="86.13" height="63.84"/></g></g><path class="cls-8" d="M280.26,804.83a14.12,14.12,0,1,0-14.11-14.12,14.16,14.16,0,0,0,14.11,14.12"/><g class="cls-11"><rect class="cls-2" x="-1489.17" y="-5989.04" width="3202.16" height="17720.83"/><g class="cls-10"><rect class="cls-2" x="255.03" y="765.48" width="50.47" height="50.47"/></g></g><path class="cls-2" d="M453.48,963.73v5.11a.06.06,0,0,0,.06.06h2.92a.06.06,0,0,1,.06.06v12.87a.06.06,0,0,1-.06.06h-2.92a.06.06,0,0,0-.06.06v5.45a.06.06,0,0,0,.06.06h34.4a.06.06,0,0,0,.06-.06V982a.06.06,0,0,0-.06-.06H485a.07.07,0,0,1-.07-.06V969a.07.07,0,0,1,.07-.06h2.92a.06.06,0,0,0,.06-.06v-5.11a.05.05,0,0,0,0-.06l-17.19-7.85a.06.06,0,0,0-.06,0l-17.2,7.85A.06.06,0,0,0,453.48,963.73Zm14.15,18.16h-4.95a.07.07,0,0,1-.07-.06V969a.07.07,0,0,1,.07-.06h4.95a.06.06,0,0,1,.06.06v12.87A.06.06,0,0,1,467.63,981.89Zm6.22-13h4.95a.06.06,0,0,1,.06.06v12.87a.06.06,0,0,1-.06.06h-4.95a.07.07,0,0,1-.07-.06V969A.07.07,0,0,1,473.85,968.9Z"/><line class="cls-3" x1="557.5" y1="61.5" x2="769.5" y2="625.5"/><line class="cls-3" x1="672.25" y1="187.58" x2="483" y2="217"/><line class="cls-3" x1="565" y1="42" x2="403" y2="260"/><line class="cls-3" x1="410.5" y1="238.5" x2="224.25" y2="248.28"/><line class="cls-3" x1="413.5" y1="246.5" x2="322.5" y2="413.5"/><line class="cls-3" x1="366" y1="34" x2="438.5" y2="230.5"/><line class="cls-3" x1="443.5" y1="241.5" x2="747.5" y2="622.5"/><line class="cls-3" x1="263.25" y1="251.28" x2="742.5" y2="606.5"/><line class="cls-3" x1="313.5" y1="413.5" x2="748.5" y2="601.5"/><line class="cls-3" x1="369.5" y1="39.5" x2="729.5" y2="588.5"/><line class="cls-3" x1="681.5" y1="188" x2="751.5" y2="618.5"/><circle class="cls-4" cx="234" cy="246" r="42"/><circle class="cls-5" cx="366.5" cy="45.5" r="42"/><circle class="cls-12" cx="564.5" cy="54.5" r="42"/><circle class="cls-7" cx="680.5" cy="182.5" r="42"/><circle class="cls-6" cx="313" cy="413" r="42"/><circle class="cls-7" cx="445.33" cy="237.96" r="90"/><path class="cls-2" d="M349.48,34.73v5.11a.06.06,0,0,0,.06.06h2.92a.06.06,0,0,1,.06.06V52.83a.06.06,0,0,1-.06.06h-2.92a.06.06,0,0,0-.06.06V58.4a.06.06,0,0,0,.06.06h34.4a.06.06,0,0,0,.06-.06V53a.06.06,0,0,0-.06-.06H381a.07.07,0,0,1-.07-.06V40a.07.07,0,0,1,.07-.06h2.92a.06.06,0,0,0,.06-.06V34.73a.05.05,0,0,0,0-.06l-17.19-7.85a.06.06,0,0,0-.06,0l-17.2,7.85A.06.06,0,0,0,349.48,34.73Zm14.15,18.16h-4.95a.07.07,0,0,1-.07-.06V40a.07.07,0,0,1,.07-.06h4.95a.06.06,0,0,1,.06.06V52.83A.06.06,0,0,1,363.63,52.89Zm6.22-13h4.95a.06.06,0,0,1,.06.06V52.83a.06.06,0,0,1-.06.06h-4.95a.07.07,0,0,1-.07-.06V40A.07.07,0,0,1,369.85,39.9Z"/><path class="cls-2" d="M134.42,656.92a2.33,2.33,0,0,0-3.15.87L116.14,684a2.3,2.3,0,0,0,.82,3.16l2.38,1.38L136.8,658.3Z"/><path class="cls-2" d="M150.28,666.07l-11.55-6.66-17.47,30.25,11.55,6.66a2.31,2.31,0,0,0,3.15-.87l15.13-26.21A2.32,2.32,0,0,0,150.28,666.07Z"/><path class="cls-2" d="M234.92,226.42a2.33,2.33,0,0,0-3.15.87l-15.13,26.22a2.3,2.3,0,0,0,.82,3.16l2.38,1.38L237.3,227.8Z"/><path class="cls-2" d="M250.78,235.57l-11.55-6.66-17.47,30.25,11.55,6.66a2.31,2.31,0,0,0,3.15-.87l15.13-26.21A2.32,2.32,0,0,0,250.78,235.57Z"/><path class="cls-5" d="M320.63,393.94H304.3s-3.67,0-3.67,3.66v32.67c0,3.67,3.67,3.67,3.67,3.67h16.33s3.67,0,3.67-3.67V397.6A3.67,3.67,0,0,0,320.63,393.94Zm-8.17,38.5a1.84,1.84,0,1,1,1.84-1.84A1.85,1.85,0,0,1,312.46,432.44Zm10-5h-20V400.1h20Z"/><path class="cls-5" d="M51.63,811.94H35.3s-3.67,0-3.67,3.66v32.67c0,3.67,3.67,3.67,3.67,3.67H51.63s3.67,0,3.67-3.67V815.6A3.67,3.67,0,0,0,51.63,811.94Zm-8.17,38.5a1.84,1.84,0,1,1,1.84-1.84A1.85,1.85,0,0,1,43.46,850.44Zm10-5h-20V818.1h20Z"/><path class="cls-8" d="M664.38,200.91h0v-3h0V184.47h6V180h3v4.48h3V180h3v4.48h3V180h3v4.48h3V180h3v4.48h6v13.45h0v3Zm21.21-33H681.1v1.51c4.44,0,9.21,3,10.46,9.08H670.65a10.38,10.38,0,0,1,9-9.08v-4.54h6Z"/><polygon class="cls-2" points="454.02 218.19 454.02 203.96 412.91 222.94 412.91 271.96 428.72 271.96 428.72 262.47 438.21 262.47 438.21 271.96 451.07 271.96 454.02 271.96 477.75 271.96 477.75 218.19 454.02 218.19"/><path class="cls-5" d="M585.93,41.61H541.07a1,1,0,0,0-1.07.9v21.7a1,1,0,0,0,1.07.9h44.86a1,1,0,0,0,1.07-.9V42.51A1,1,0,0,0,585.93,41.61ZM573.11,52.67h7.41a1.12,1.12,0,0,1,1.13.9,1.07,1.07,0,0,1-1.06,1.24h-7.4a1.12,1.12,0,0,1-1.13-.9A1.07,1.07,0,0,1,573.11,52.67Zm-29-2.23V46.36A1.37,1.37,0,0,1,545.43,45H557a1.36,1.36,0,0,1,1.36,1.36v4.08A1.37,1.37,0,0,1,557,51.8H545.43A1.37,1.37,0,0,1,544.07,50.44Zm36.52,10.78H557.16a1.11,1.11,0,0,1-1.12-.9,1.07,1.07,0,0,1,1.05-1.24h23.44a1.11,1.11,0,0,1,1.08.73A1.08,1.08,0,0,1,580.59,61.22Z"/><path class="cls-2" d="M226.93,1003.61H182.07a1,1,0,0,0-1.07.9v21.7a1,1,0,0,0,1.07.9h44.86a1,1,0,0,0,1.07-.9v-21.7A1,1,0,0,0,226.93,1003.61Zm-12.82,11.06h7.41a1.12,1.12,0,0,1,1.13.9,1.07,1.07,0,0,1-1.06,1.24h-7.4a1.12,1.12,0,0,1-1.13-.9A1.07,1.07,0,0,1,214.11,1014.67Zm-29-4.27h0a3.41,3.41,0,0,1,3.4-3.4h7.47a3.41,3.41,0,0,1,3.4,3.4h0a3.41,3.41,0,0,1-3.4,3.4h-7.47A3.41,3.41,0,0,1,185.07,1010.4Zm36.52,12.82H198.16a1.11,1.11,0,0,1-1.12-.9,1.07,1.07,0,0,1,1.05-1.24h23.44a1.11,1.11,0,0,1,1.08.73A1.08,1.08,0,0,1,221.59,1023.22Z"/><path class="cls-13" d="M962.75,587.06a91.11,91.11,0,0,0-18.82-36.47c-16.29-15.54-38.56-21.75-50.25-24a54.51,54.51,0,0,0-6.51-1.06L886,525.4l-.18,0c-1-2.71-1.88-5.46-2.82-8.18-2.06-5.93-4.26-11.76-7.43-16.93a40.36,40.36,0,0,0-3.67-5.1c-12-16.34-30.25-25.43-48.71-28.25-7.27-1.1-11.9-1.28-17.85-.45-1.27.17-2.57.37-4,.64-6.67,1.24-12.81,4.78-19.14,6.75-3.16-1.78-5.37-4.81-8.06-7.47-.45-.46-.92-.88-1.36-1.32-13-13-28.88-22.65-46.09-26-16.23-3.2-19.7-4.8-45.87,0-1.37.25-2.74.59-4.11.92-30.06,4.79-54.21,26.39-61.58,54.37a92.81,92.81,0,0,0-3.59,10.09c-2.53,6.93-10.12,6.58-15.5,8.7-1.26.47-2.49,1-3.73,1.54-25.92,11-47.36,35.69-54.85,66.1a90.86,90.86,0,0,0-3.63,15.53A89.76,89.76,0,0,0,532.9,609c0,36.48,22.05,68.1,54.05,83.32A99.87,99.87,0,0,0,630,702H868.56a99.6,99.6,0,0,0,47.54-12,96.8,96.8,0,0,0,28.36-23.19A90.08,90.08,0,0,0,965.61,609,88.76,88.76,0,0,0,962.75,587.06Z"/><path class="cls-13" d="M536.49,630.74a91.27,91.27,0,0,0,18.82,36.46c16.29,15.54,38.56,21.76,50.25,24a52.85,52.85,0,0,0,6.51,1l1.19.14h.17c1,2.72,1.88,5.46,2.83,8.18,2,5.94,4.25,11.77,7.42,16.93a39.92,39.92,0,0,0,3.67,5.1c12,16.34,30.25,25.44,48.72,28.25,7.26,1.11,11.89,1.29,17.85.46,1.26-.18,2.56-.38,4-.65,6.67-1.23,12.82-4.78,19.14-6.74,3.16,1.77,5.37,4.8,8.07,7.46.44.46.91.88,1.36,1.32,13,13,28.87,22.65,46.08,26,16.24,3.2,19.7,4.79,45.87,0,1.38-.25,2.74-.6,4.11-.93,30.07-4.79,54.21-26.39,61.59-54.37a94.76,94.76,0,0,0,3.58-10.08c2.54-6.93,10.12-6.58,15.5-8.71,1.26-.46,2.49-1,3.73-1.53,25.92-11,47.36-35.7,54.85-66.11a91.6,91.6,0,0,0,4.56-28.29c0-36.47-22.05-68.1-54-83.31a99.81,99.81,0,0,0-43-9.66H630.68a99.51,99.51,0,0,0-47.54,12A96.32,96.32,0,0,0,554.79,551a90,90,0,0,0-21.16,57.77A88.84,88.84,0,0,0,536.49,630.74Z"/><rect class="cls-14" x="638.57" y="511.81" width="218.28" height="206.19"/><polygon class="cls-5" points="762.61 547.49 748.43 574.5 755.63 588.2 777.01 547.49 762.61 547.49"/><polygon class="cls-4" points="719.86 547.49 741.23 588.2 748.43 574.5 734.25 547.49 719.86 547.49"/><polygon class="cls-6" points="741.24 615.46 748.43 629.17 755.63 615.46 755.63 615.46 748.43 601.75 748.43 601.75 741.24 615.46 741.24 615.46"/><polygon class="cls-4" points="741.24 615.46 734.04 601.75 734.04 601.75 741.24 588.04 741.23 588.04 748.43 601.75 748.43 601.75 741.24 615.46 741.24 615.46"/><polygon class="cls-12" points="755.63 615.46 762.83 601.75 762.83 601.75 755.63 588.03 755.63 588.04 748.43 601.75 748.43 601.75 749 601 755.63 615.46"/><polygon class="cls-7" points="748.43 574.33 741.24 588.04 741.23 588.04 748.43 601.75 748.43 601.75 755.63 588.04 755.63 588.03 748.43 574.33 748.43 574.33"/><polygon class="cls-4" points="791.41 547.49 762.83 601.91 755.63 588.2 777.01 547.49 791.41 547.49"/><polygon class="cls-5" points="705.46 547.49 734.04 601.91 741.23 588.2 719.86 547.49 705.46 547.49"/><path class="cls-4" d="M717.18,646.65h25.39v4.84H717.18Z"/><path class="cls-4" d="M717.18,662.37h25.39v4.84H717.18Z"/><path class="cls-4" d="M717.18,677.49h25.39v4.84H717.18Z"/><path class="cls-4" d="M759.5,646.65v30.84h22.36v4.84H754.06V646.65Z"/><path class="cls-4" d="M784.7,664.47a16.92,16.92,0,0,1,5.39-12.56,17.79,17.79,0,0,1,12.9-5.25A17.45,17.45,0,0,1,815.76,652a17.27,17.27,0,0,1,5.34,12.72,17,17,0,0,1-5.36,12.67,18.49,18.49,0,0,1-25.13.58A17,17,0,0,1,784.7,664.47Zm5.3.06a12.93,12.93,0,0,0,22,9.38,13.4,13.4,0,0,0,0-18.57A12.92,12.92,0,0,0,790,664.53Z"/><path class="cls-4" d="M710.66,646.65l-18,35.48-18-35.48h5.48l12.49,24.64,12.49-24.64Z"/><path class="cls-8" d="M253.58,2288.15a4.53,4.53,0,0,0,6.47,0l6-5.91v16.14a4.52,4.52,0,0,0,4.56,4.51H289.9a4.51,4.51,0,0,0,4.55-4.51v-16.14l6,5.91a4.55,4.55,0,0,0,6.48,0l4-3.9a4.46,4.46,0,0,0,0-6.42l-14.17-14a8.54,8.54,0,0,0-6.07-2.5H269.87a8.54,8.54,0,0,0-6.07,2.5l-14.17,14a4.2,4.2,0,0,0-1.31,3.21,4.82,4.82,0,0,0,1.31,3.21Z"/><g class="cls-15"><rect class="cls-2" x="-1489.17" y="-4537.04" width="3202.16" height="17720.83"/></g><path class="cls-8" d="M280.26,2256.83a14.12,14.12,0,1,0-14.11-14.12,14.16,14.16,0,0,0,14.11,14.12"/><g class="cls-16"><rect class="cls-2" x="-1489.17" y="-4537.04" width="3202.16" height="17720.83"/></g></svg>